<mxfile host="app.diagrams.net" modified="2024-06-20T15:13:17.401Z" agent="Mozilla/5.0 (X11; Linux x86_64; rv:127.0) Gecko/20100101 Firefox/127.0" etag="l3QtU3fDPzi5F3jP712W" version="24.5.5" type="github">
  <diagram name="Dashboard" id="IdYxY9iABA2kAovEA9R2">
    <mxGraphModel dx="1760" dy="2120" grid="1" gridSize="10" guides="1" tooltips="1" connect="1" arrows="1" fold="1" page="1" pageScale="1" pageWidth="850" pageHeight="1100" math="0" shadow="0">
      <root>
        <mxCell id="0" />
        <mxCell id="1" parent="0" />
        <mxCell id="Y5-xW1E8yCDe6cnVddpV-73" style="edgeStyle=orthogonalEdgeStyle;rounded=0;orthogonalLoop=1;jettySize=auto;html=1;exitX=1;exitY=0.5;exitDx=0;exitDy=0;entryX=0;entryY=0.5;entryDx=0;entryDy=0;" edge="1" parent="1" source="mP2HOwmsl2Bn5Mv73xF0-36" target="Y5-xW1E8yCDe6cnVddpV-71">
          <mxGeometry relative="1" as="geometry">
            <Array as="points">
              <mxPoint x="1320" y="140" />
            </Array>
          </mxGeometry>
        </mxCell>
        <mxCell id="mP2HOwmsl2Bn5Mv73xF0-36" value="" style="rounded=1;whiteSpace=wrap;html=1;fillColor=none;" parent="1" vertex="1">
          <mxGeometry x="1064.53" y="74" width="255.47" height="146" as="geometry" />
        </mxCell>
        <mxCell id="mP2HOwmsl2Bn5Mv73xF0-14" value="&lt;div style=&quot;font-size: 36px;&quot;&gt;&lt;font face=&quot;Garamond&quot; style=&quot;font-size: 36px;&quot;&gt;&lt;b&gt;&lt;font style=&quot;font-size: 36px;&quot;&gt;Dashboard&lt;/font&gt;&lt;/b&gt;&lt;/font&gt;&lt;/div&gt;" style="swimlane;whiteSpace=wrap;html=1;movable=0;resizable=0;rotatable=0;deletable=0;editable=0;locked=1;connectable=0;startSize=50;" parent="1" vertex="1">
          <mxGeometry x="10" y="-40" width="2270" height="580" as="geometry" />
        </mxCell>
        <mxCell id="mP2HOwmsl2Bn5Mv73xF0-4" value="" style="group;fontFamily=Garamond;" parent="1" vertex="1" connectable="0">
          <mxGeometry x="66" y="53" width="115" height="102" as="geometry" />
        </mxCell>
        <mxCell id="mP2HOwmsl2Bn5Mv73xF0-3" value="" style="rounded=1;whiteSpace=wrap;html=1;fillColor=none;fontFamily=Garamond;" parent="mP2HOwmsl2Bn5Mv73xF0-4" vertex="1">
          <mxGeometry width="115" height="100" as="geometry" />
        </mxCell>
        <mxCell id="mP2HOwmsl2Bn5Mv73xF0-1" value="" style="html=1;verticalLabelPosition=bottom;align=center;labelBackgroundColor=#ffffff;verticalAlign=top;strokeWidth=2;strokeColor=#0080F0;shadow=0;dashed=0;shape=mxgraph.ios7.icons.user;fontFamily=Garamond;" parent="mP2HOwmsl2Bn5Mv73xF0-4" vertex="1">
          <mxGeometry x="31" y="17" width="50" height="50" as="geometry" />
        </mxCell>
        <mxCell id="mP2HOwmsl2Bn5Mv73xF0-2" value="&lt;b&gt;&lt;font style=&quot;font-size: 20px;&quot;&gt;User&lt;/font&gt;&lt;/b&gt;" style="text;html=1;align=center;verticalAlign=middle;resizable=0;points=[];autosize=1;strokeColor=none;fillColor=none;fontFamily=Garamond;" parent="mP2HOwmsl2Bn5Mv73xF0-4" vertex="1">
          <mxGeometry x="16" y="62" width="80" height="40" as="geometry" />
        </mxCell>
        <mxCell id="mP2HOwmsl2Bn5Mv73xF0-24" style="edgeStyle=orthogonalEdgeStyle;rounded=0;orthogonalLoop=1;jettySize=auto;html=1;exitX=0.25;exitY=1;exitDx=0;exitDy=0;entryX=0.25;entryY=0;entryDx=0;entryDy=0;" parent="1" source="mP2HOwmsl2Bn5Mv73xF0-5" target="mP2HOwmsl2Bn5Mv73xF0-15" edge="1">
          <mxGeometry relative="1" as="geometry" />
        </mxCell>
        <mxCell id="Y5-xW1E8yCDe6cnVddpV-2" style="edgeStyle=orthogonalEdgeStyle;rounded=0;orthogonalLoop=1;jettySize=auto;html=1;exitX=1;exitY=0.5;exitDx=0;exitDy=0;entryX=0;entryY=0.5;entryDx=0;entryDy=0;" edge="1" parent="1" source="mP2HOwmsl2Bn5Mv73xF0-5" target="Y5-xW1E8yCDe6cnVddpV-1">
          <mxGeometry relative="1" as="geometry" />
        </mxCell>
        <mxCell id="mP2HOwmsl2Bn5Mv73xF0-5" value="&lt;b&gt;/eatofy/auth/login&lt;/b&gt;" style="rounded=1;whiteSpace=wrap;html=1;fillColor=#b1ddf0;strokeColor=#10739e;fontFamily=Garamond;" parent="1" vertex="1">
          <mxGeometry x="487" y="74" width="160" height="60" as="geometry" />
        </mxCell>
        <mxCell id="mP2HOwmsl2Bn5Mv73xF0-10" value="" style="group;fontFamily=Garamond;" parent="1" vertex="1" connectable="0">
          <mxGeometry x="307" y="50" width="100" height="107" as="geometry" />
        </mxCell>
        <mxCell id="mP2HOwmsl2Bn5Mv73xF0-7" value="&lt;b&gt;Login&lt;/b&gt;" style="sketch=0;outlineConnect=0;strokeColor=#10739e;fillColor=#b1ddf0;dashed=0;verticalLabelPosition=bottom;verticalAlign=top;align=center;html=1;fontSize=12;fontStyle=0;aspect=fixed;shape=mxgraph.aws4.resourceIcon;resIcon=mxgraph.aws4.addon;fontFamily=Garamond;" parent="mP2HOwmsl2Bn5Mv73xF0-10" vertex="1">
          <mxGeometry x="20" y="20" width="60" height="60" as="geometry" />
        </mxCell>
        <mxCell id="mP2HOwmsl2Bn5Mv73xF0-9" value="" style="rounded=1;whiteSpace=wrap;html=1;fillColor=none;fontFamily=Garamond;" parent="mP2HOwmsl2Bn5Mv73xF0-10" vertex="1">
          <mxGeometry width="100" height="107" as="geometry" />
        </mxCell>
        <mxCell id="mP2HOwmsl2Bn5Mv73xF0-12" style="edgeStyle=orthogonalEdgeStyle;rounded=0;orthogonalLoop=1;jettySize=auto;html=1;exitX=1;exitY=0.5;exitDx=0;exitDy=0;fontFamily=Garamond;" parent="1" source="mP2HOwmsl2Bn5Mv73xF0-3" target="mP2HOwmsl2Bn5Mv73xF0-9" edge="1">
          <mxGeometry relative="1" as="geometry" />
        </mxCell>
        <mxCell id="mP2HOwmsl2Bn5Mv73xF0-13" style="edgeStyle=orthogonalEdgeStyle;rounded=0;orthogonalLoop=1;jettySize=auto;html=1;exitX=1;exitY=0.5;exitDx=0;exitDy=0;entryX=0;entryY=0.5;entryDx=0;entryDy=0;fontFamily=Garamond;" parent="1" source="mP2HOwmsl2Bn5Mv73xF0-9" target="mP2HOwmsl2Bn5Mv73xF0-5" edge="1">
          <mxGeometry relative="1" as="geometry" />
        </mxCell>
        <mxCell id="mP2HOwmsl2Bn5Mv73xF0-25" style="edgeStyle=orthogonalEdgeStyle;rounded=0;orthogonalLoop=1;jettySize=auto;html=1;exitX=0.75;exitY=0;exitDx=0;exitDy=0;entryX=0.75;entryY=1;entryDx=0;entryDy=0;" parent="1" source="mP2HOwmsl2Bn5Mv73xF0-15" target="mP2HOwmsl2Bn5Mv73xF0-5" edge="1">
          <mxGeometry relative="1" as="geometry" />
        </mxCell>
        <mxCell id="mP2HOwmsl2Bn5Mv73xF0-15" value="&lt;b&gt;/api/eatofy/auth/login&lt;/b&gt;" style="rounded=1;whiteSpace=wrap;html=1;fillColor=#b1ddf0;strokeColor=#10739e;fontFamily=Garamond;" parent="1" vertex="1">
          <mxGeometry x="487" y="328" width="160" height="82" as="geometry" />
        </mxCell>
        <mxCell id="mP2HOwmsl2Bn5Mv73xF0-23" value="" style="group" parent="1" vertex="1" connectable="0">
          <mxGeometry x="395" y="180" width="113" height="110" as="geometry" />
        </mxCell>
        <mxCell id="mP2HOwmsl2Bn5Mv73xF0-19" value="" style="rounded=1;whiteSpace=wrap;html=1;fillColor=none;" parent="mP2HOwmsl2Bn5Mv73xF0-23" vertex="1">
          <mxGeometry width="113" height="110" as="geometry" />
        </mxCell>
        <mxCell id="mP2HOwmsl2Bn5Mv73xF0-18" value="" style="dashed=0;outlineConnect=0;html=1;align=center;labelPosition=center;verticalLabelPosition=bottom;verticalAlign=top;shape=mxgraph.webicons.json;gradientColor=none;strokeColor=none;fillColor=none;" parent="mP2HOwmsl2Bn5Mv73xF0-23" vertex="1">
          <mxGeometry x="24" y="3" width="55" height="53" as="geometry" />
        </mxCell>
        <mxCell id="mP2HOwmsl2Bn5Mv73xF0-21" value="&lt;font face=&quot;Garamond&quot;&gt;&lt;b&gt;u&lt;/b&gt;&lt;/font&gt;&lt;b&gt;&lt;font face=&quot;Garamond&quot;&gt;sername&lt;br&gt;&lt;/font&gt;&lt;/b&gt;" style="text;html=1;align=center;verticalAlign=middle;whiteSpace=wrap;rounded=0;" parent="mP2HOwmsl2Bn5Mv73xF0-23" vertex="1">
          <mxGeometry x="20" y="53.25" width="60" height="30" as="geometry" />
        </mxCell>
        <mxCell id="mP2HOwmsl2Bn5Mv73xF0-22" value="&lt;font face=&quot;Garamond&quot;&gt;&lt;b&gt;password&lt;/b&gt;&lt;/font&gt;" style="text;html=1;align=center;verticalAlign=middle;whiteSpace=wrap;rounded=0;" parent="mP2HOwmsl2Bn5Mv73xF0-23" vertex="1">
          <mxGeometry x="20" y="78" width="60" height="30" as="geometry" />
        </mxCell>
        <mxCell id="mP2HOwmsl2Bn5Mv73xF0-27" value="" style="rounded=1;whiteSpace=wrap;html=1;fillColor=none;" parent="1" vertex="1">
          <mxGeometry x="640" y="180" width="190" height="110" as="geometry" />
        </mxCell>
        <mxCell id="mP2HOwmsl2Bn5Mv73xF0-28" value="" style="dashed=0;outlineConnect=0;html=1;align=center;labelPosition=center;verticalLabelPosition=bottom;verticalAlign=top;shape=mxgraph.webicons.json;gradientColor=none;strokeColor=none;fillColor=none;" parent="1" vertex="1">
          <mxGeometry x="664" y="183" width="55" height="53" as="geometry" />
        </mxCell>
        <mxCell id="mP2HOwmsl2Bn5Mv73xF0-34" style="edgeStyle=orthogonalEdgeStyle;rounded=0;orthogonalLoop=1;jettySize=auto;html=1;exitX=1;exitY=0.75;exitDx=0;exitDy=0;entryX=0;entryY=0.5;entryDx=0;entryDy=0;" parent="1" source="mP2HOwmsl2Bn5Mv73xF0-29" target="mP2HOwmsl2Bn5Mv73xF0-33" edge="1">
          <mxGeometry relative="1" as="geometry" />
        </mxCell>
        <mxCell id="mP2HOwmsl2Bn5Mv73xF0-29" value="&lt;div align=&quot;left&quot;&gt;&lt;font face=&quot;Garamond&quot;&gt;&lt;b&gt;returncode,&lt;/b&gt;&lt;/font&gt;&lt;/div&gt;&lt;div align=&quot;left&quot;&gt;&lt;font face=&quot;Garamond&quot;&gt;&lt;b&gt;message,&lt;/b&gt;&lt;/font&gt;&lt;/div&gt;&lt;div align=&quot;left&quot;&gt;&lt;font face=&quot;Garamond&quot;&gt;&lt;b&gt;output&lt;br&gt;&lt;/b&gt;&lt;/font&gt;&lt;/div&gt;" style="text;html=1;align=left;verticalAlign=middle;whiteSpace=wrap;rounded=0;" parent="1" vertex="1">
          <mxGeometry x="659" y="233.25" width="80" height="49.75" as="geometry" />
        </mxCell>
        <mxCell id="mP2HOwmsl2Bn5Mv73xF0-32" value="" style="image;aspect=fixed;html=1;points=[];align=center;fontSize=12;image=img/lib/azure2/databases/Azure_Database_PostgreSQL_Server.svg;imageBorder=none;" parent="1" vertex="1">
          <mxGeometry x="783" y="203" width="30" height="40" as="geometry" />
        </mxCell>
        <mxCell id="mP2HOwmsl2Bn5Mv73xF0-33" value="&lt;b&gt;&lt;font face=&quot;Garamond&quot;&gt;User&lt;br&gt;&lt;/font&gt;&lt;/b&gt;" style="text;html=1;align=left;verticalAlign=middle;whiteSpace=wrap;rounded=0;" parent="1" vertex="1">
          <mxGeometry x="780" y="260" width="41" height="19.75" as="geometry" />
        </mxCell>
        <mxCell id="Y5-xW1E8yCDe6cnVddpV-82" style="edgeStyle=orthogonalEdgeStyle;rounded=0;orthogonalLoop=1;jettySize=auto;html=1;exitX=0.25;exitY=1;exitDx=0;exitDy=0;entryX=0.25;entryY=0;entryDx=0;entryDy=0;" edge="1" parent="1" source="Y5-xW1E8yCDe6cnVddpV-1" target="Y5-xW1E8yCDe6cnVddpV-74">
          <mxGeometry relative="1" as="geometry" />
        </mxCell>
        <mxCell id="Y5-xW1E8yCDe6cnVddpV-88" style="edgeStyle=orthogonalEdgeStyle;rounded=0;orthogonalLoop=1;jettySize=auto;html=1;exitX=1;exitY=0.5;exitDx=0;exitDy=0;" edge="1" parent="1" source="Y5-xW1E8yCDe6cnVddpV-1" target="mP2HOwmsl2Bn5Mv73xF0-36">
          <mxGeometry relative="1" as="geometry" />
        </mxCell>
        <mxCell id="Y5-xW1E8yCDe6cnVddpV-1" value="&lt;b&gt;/eatofy/dashboard&lt;/b&gt;" style="rounded=1;whiteSpace=wrap;html=1;fillColor=#b1ddf0;strokeColor=#10739e;fontFamily=Garamond;" vertex="1" parent="1">
          <mxGeometry x="850" y="73.5" width="160" height="60" as="geometry" />
        </mxCell>
        <mxCell id="Y5-xW1E8yCDe6cnVddpV-32" value="" style="group" vertex="1" connectable="0" parent="1">
          <mxGeometry x="1620" y="300" width="530" height="210.25" as="geometry" />
        </mxCell>
        <mxCell id="Y5-xW1E8yCDe6cnVddpV-31" value="" style="rounded=1;whiteSpace=wrap;html=1;fillColor=none;" vertex="1" parent="Y5-xW1E8yCDe6cnVddpV-32">
          <mxGeometry y="0.25" width="530" height="210" as="geometry" />
        </mxCell>
        <mxCell id="Y5-xW1E8yCDe6cnVddpV-4" value="" style="image;html=1;image=img/lib/clip_art/finance/Pie_Chart_128x128.png" vertex="1" parent="Y5-xW1E8yCDe6cnVddpV-32">
          <mxGeometry x="40" y="48.25" width="170" height="142" as="geometry" />
        </mxCell>
        <mxCell id="Y5-xW1E8yCDe6cnVddpV-6" value="&lt;font face=&quot;Garamond&quot; style=&quot;font-size: 20px;&quot;&gt;&lt;b&gt;Sales Chart&lt;/b&gt;&lt;/font&gt;" style="text;html=1;align=center;verticalAlign=middle;whiteSpace=wrap;rounded=0;" vertex="1" parent="Y5-xW1E8yCDe6cnVddpV-32">
          <mxGeometry x="167.5" width="190" height="30.25" as="geometry" />
        </mxCell>
        <mxCell id="Y5-xW1E8yCDe6cnVddpV-7" value="" style="verticalLabelPosition=bottom;shadow=0;dashed=0;align=center;html=1;verticalAlign=top;strokeWidth=1;shape=mxgraph.mockup.graphics.columnChart;strokeColor2=none;strokeColor3=#666666;fillColor2=#008cff;fillColor3=#dddddd;fillColor=none;strokeColor=none;" vertex="1" parent="Y5-xW1E8yCDe6cnVddpV-32">
          <mxGeometry x="260" y="60.25" width="250" height="120" as="geometry" />
        </mxCell>
        <mxCell id="Y5-xW1E8yCDe6cnVddpV-36" style="edgeStyle=orthogonalEdgeStyle;rounded=0;orthogonalLoop=1;jettySize=auto;html=1;exitX=1;exitY=0.5;exitDx=0;exitDy=0;entryX=0;entryY=0.574;entryDx=0;entryDy=0;entryPerimeter=0;" edge="1" parent="1" source="mP2HOwmsl2Bn5Mv73xF0-36" target="Y5-xW1E8yCDe6cnVddpV-31">
          <mxGeometry relative="1" as="geometry">
            <Array as="points">
              <mxPoint x="1320" y="140" />
              <mxPoint x="1490" y="140" />
              <mxPoint x="1490" y="421" />
            </Array>
          </mxGeometry>
        </mxCell>
        <mxCell id="Y5-xW1E8yCDe6cnVddpV-37" value="" style="aspect=fixed;sketch=0;html=1;dashed=0;whitespace=wrap;verticalLabelPosition=bottom;verticalAlign=top;fillColor=#2875E2;strokeColor=#ffffff;points=[[0.005,0.63,0],[0.1,0.2,0],[0.9,0.2,0],[0.5,0,0],[0.995,0.63,0],[0.72,0.99,0],[0.5,1,0],[0.28,0.99,0]];shape=mxgraph.kubernetes.icon2;kubernetesLabel=1;prIcon=api" vertex="1" parent="1">
          <mxGeometry x="542" y="224" width="50" height="48" as="geometry" />
        </mxCell>
        <mxCell id="mP2HOwmsl2Bn5Mv73xF0-35" value="" style="sketch=0;outlineConnect=0;fontColor=#232F3E;gradientColor=none;fillColor=#0080F0;strokeColor=none;dashed=0;verticalLabelPosition=bottom;verticalAlign=top;align=center;html=1;fontSize=12;fontStyle=0;aspect=fixed;pointerEvents=1;shape=mxgraph.aws4.opensearch_dashboards;" parent="1" vertex="1">
          <mxGeometry x="1141.766403" y="97.25185185185185" width="102.22703703703705" height="77.32592592592593" as="geometry" />
        </mxCell>
        <mxCell id="mP2HOwmsl2Bn5Mv73xF0-37" value="&lt;font style=&quot;font-size: 20px;&quot; face=&quot;Garamond&quot;&gt;&lt;b&gt;Dashboard&lt;/b&gt;&lt;/font&gt;" style="text;html=1;align=center;verticalAlign=middle;whiteSpace=wrap;rounded=0;" parent="1" vertex="1">
          <mxGeometry x="1136.9131666666667" y="181.06666666666666" width="123.877403" height="27.037037037037038" as="geometry" />
        </mxCell>
        <mxCell id="Y5-xW1E8yCDe6cnVddpV-72" value="" style="group" vertex="1" connectable="0" parent="1">
          <mxGeometry x="1610" y="30" width="600" height="220" as="geometry" />
        </mxCell>
        <mxCell id="Y5-xW1E8yCDe6cnVddpV-71" value="" style="rounded=1;whiteSpace=wrap;html=1;fillColor=none;" vertex="1" parent="Y5-xW1E8yCDe6cnVddpV-72">
          <mxGeometry width="600" height="220" as="geometry" />
        </mxCell>
        <mxCell id="Y5-xW1E8yCDe6cnVddpV-12" value="" style="rounded=1;whiteSpace=wrap;html=1;fillColor=none;container=0;" vertex="1" parent="Y5-xW1E8yCDe6cnVddpV-72">
          <mxGeometry x="19" y="23" width="271" height="81" as="geometry" />
        </mxCell>
        <mxCell id="Y5-xW1E8yCDe6cnVddpV-9" value="" style="sketch=0;points=[[0,0,0],[0.25,0,0],[0.5,0,0],[0.75,0,0],[1,0,0],[0,1,0],[0.25,1,0],[0.5,1,0],[0.75,1,0],[1,1,0],[0,0.25,0],[0,0.5,0],[0,0.75,0],[1,0.25,0],[1,0.5,0],[1,0.75,0]];outlineConnect=0;fillColor=none;dashed=0;verticalLabelPosition=bottom;verticalAlign=top;align=center;html=1;fontSize=12;fontStyle=0;aspect=fixed;shape=mxgraph.aws4.resourceIcon;resIcon=mxgraph.aws4.analytics;container=0;" vertex="1" parent="Y5-xW1E8yCDe6cnVddpV-72">
          <mxGeometry x="40" y="23" width="78" height="78" as="geometry" />
        </mxCell>
        <mxCell id="Y5-xW1E8yCDe6cnVddpV-10" value="&lt;font face=&quot;Garamond&quot;&gt;&lt;b style=&quot;font-size: 20px;&quot;&gt;&lt;font style=&quot;font-size: 20px;&quot;&gt;Total Hotels&lt;/font&gt;&lt;br&gt;&lt;/b&gt;&lt;/font&gt;" style="text;html=1;align=center;verticalAlign=middle;whiteSpace=wrap;rounded=0;container=0;" vertex="1" parent="Y5-xW1E8yCDe6cnVddpV-72">
          <mxGeometry x="118" y="47" width="152" height="37" as="geometry" />
        </mxCell>
        <mxCell id="Y5-xW1E8yCDe6cnVddpV-21" value="" style="rounded=1;whiteSpace=wrap;html=1;fillColor=none;container=0;" vertex="1" parent="Y5-xW1E8yCDe6cnVddpV-72">
          <mxGeometry x="310" y="20" width="271" height="81" as="geometry" />
        </mxCell>
        <mxCell id="Y5-xW1E8yCDe6cnVddpV-22" value="" style="sketch=0;points=[[0,0,0],[0.25,0,0],[0.5,0,0],[0.75,0,0],[1,0,0],[0,1,0],[0.25,1,0],[0.5,1,0],[0.75,1,0],[1,1,0],[0,0.25,0],[0,0.5,0],[0,0.75,0],[1,0.25,0],[1,0.5,0],[1,0.75,0]];outlineConnect=0;fillColor=none;dashed=0;verticalLabelPosition=bottom;verticalAlign=top;align=center;html=1;fontSize=12;fontStyle=0;aspect=fixed;shape=mxgraph.aws4.resourceIcon;resIcon=mxgraph.aws4.analytics;container=0;" vertex="1" parent="Y5-xW1E8yCDe6cnVddpV-72">
          <mxGeometry x="331" y="20" width="78" height="78" as="geometry" />
        </mxCell>
        <mxCell id="Y5-xW1E8yCDe6cnVddpV-23" value="&lt;font face=&quot;Garamond&quot;&gt;&lt;b style=&quot;font-size: 20px;&quot;&gt;Subscribed &lt;/b&gt;&lt;/font&gt;&lt;font face=&quot;Garamond&quot;&gt;&lt;b style=&quot;font-size: 20px;&quot;&gt;&lt;font style=&quot;font-size: 20px;&quot;&gt;Hotels&lt;/font&gt;&lt;/b&gt;&lt;/font&gt;" style="text;html=1;align=center;verticalAlign=middle;whiteSpace=wrap;rounded=0;container=0;" vertex="1" parent="Y5-xW1E8yCDe6cnVddpV-72">
          <mxGeometry x="409" y="44" width="152" height="37" as="geometry" />
        </mxCell>
        <mxCell id="Y5-xW1E8yCDe6cnVddpV-65" value="" style="rounded=1;whiteSpace=wrap;html=1;fillColor=none;container=0;" vertex="1" parent="Y5-xW1E8yCDe6cnVddpV-72">
          <mxGeometry x="18" y="120" width="271" height="81" as="geometry" />
        </mxCell>
        <mxCell id="Y5-xW1E8yCDe6cnVddpV-66" value="" style="sketch=0;points=[[0,0,0],[0.25,0,0],[0.5,0,0],[0.75,0,0],[1,0,0],[0,1,0],[0.25,1,0],[0.5,1,0],[0.75,1,0],[1,1,0],[0,0.25,0],[0,0.5,0],[0,0.75,0],[1,0.25,0],[1,0.5,0],[1,0.75,0]];outlineConnect=0;fillColor=none;dashed=0;verticalLabelPosition=bottom;verticalAlign=top;align=center;html=1;fontSize=12;fontStyle=0;aspect=fixed;shape=mxgraph.aws4.resourceIcon;resIcon=mxgraph.aws4.analytics;container=0;" vertex="1" parent="Y5-xW1E8yCDe6cnVddpV-72">
          <mxGeometry x="39" y="120" width="78" height="78" as="geometry" />
        </mxCell>
        <mxCell id="Y5-xW1E8yCDe6cnVddpV-67" value="&lt;font face=&quot;Garamond&quot;&gt;&lt;b style=&quot;font-size: 20px;&quot;&gt;Unsubscribed &lt;/b&gt;&lt;/font&gt;&lt;font face=&quot;Garamond&quot;&gt;&lt;b style=&quot;font-size: 20px;&quot;&gt;&lt;font style=&quot;font-size: 20px;&quot;&gt;Hotels&lt;/font&gt;&lt;/b&gt;&lt;/font&gt;" style="text;html=1;align=center;verticalAlign=middle;whiteSpace=wrap;rounded=0;container=0;" vertex="1" parent="Y5-xW1E8yCDe6cnVddpV-72">
          <mxGeometry x="117" y="144" width="152" height="37" as="geometry" />
        </mxCell>
        <mxCell id="Y5-xW1E8yCDe6cnVddpV-68" value="" style="rounded=1;whiteSpace=wrap;html=1;fillColor=none;container=0;" vertex="1" parent="Y5-xW1E8yCDe6cnVddpV-72">
          <mxGeometry x="314" y="121" width="271" height="81" as="geometry" />
        </mxCell>
        <mxCell id="Y5-xW1E8yCDe6cnVddpV-69" value="" style="sketch=0;points=[[0,0,0],[0.25,0,0],[0.5,0,0],[0.75,0,0],[1,0,0],[0,1,0],[0.25,1,0],[0.5,1,0],[0.75,1,0],[1,1,0],[0,0.25,0],[0,0.5,0],[0,0.75,0],[1,0.25,0],[1,0.5,0],[1,0.75,0]];outlineConnect=0;fillColor=none;dashed=0;verticalLabelPosition=bottom;verticalAlign=top;align=center;html=1;fontSize=12;fontStyle=0;aspect=fixed;shape=mxgraph.aws4.resourceIcon;resIcon=mxgraph.aws4.analytics;container=0;" vertex="1" parent="Y5-xW1E8yCDe6cnVddpV-72">
          <mxGeometry x="335" y="121" width="78" height="78" as="geometry" />
        </mxCell>
        <mxCell id="Y5-xW1E8yCDe6cnVddpV-70" value="&lt;font face=&quot;Garamond&quot;&gt;&lt;b style=&quot;font-size: 20px;&quot;&gt;Revenue Generated&lt;/b&gt;&lt;/font&gt;" style="text;html=1;align=center;verticalAlign=middle;whiteSpace=wrap;rounded=0;container=0;" vertex="1" parent="Y5-xW1E8yCDe6cnVddpV-72">
          <mxGeometry x="413" y="145" width="152" height="37" as="geometry" />
        </mxCell>
        <mxCell id="Y5-xW1E8yCDe6cnVddpV-84" style="edgeStyle=orthogonalEdgeStyle;rounded=0;orthogonalLoop=1;jettySize=auto;html=1;exitX=0.75;exitY=0;exitDx=0;exitDy=0;entryX=0.75;entryY=1;entryDx=0;entryDy=0;" edge="1" parent="1" source="Y5-xW1E8yCDe6cnVddpV-74" target="Y5-xW1E8yCDe6cnVddpV-1">
          <mxGeometry relative="1" as="geometry" />
        </mxCell>
        <mxCell id="Y5-xW1E8yCDe6cnVddpV-74" value="&lt;b&gt;/api/eatofy/auth/login&lt;/b&gt;" style="rounded=1;whiteSpace=wrap;html=1;fillColor=#b1ddf0;strokeColor=#10739e;fontFamily=Garamond;" vertex="1" parent="1">
          <mxGeometry x="850" y="408" width="160" height="82" as="geometry" />
        </mxCell>
        <mxCell id="Y5-xW1E8yCDe6cnVddpV-75" value="" style="rounded=1;whiteSpace=wrap;html=1;fillColor=none;" vertex="1" parent="1">
          <mxGeometry x="1003" y="260" width="307" height="110" as="geometry" />
        </mxCell>
        <mxCell id="Y5-xW1E8yCDe6cnVddpV-76" value="" style="dashed=0;outlineConnect=0;html=1;align=center;labelPosition=center;verticalLabelPosition=bottom;verticalAlign=top;shape=mxgraph.webicons.json;gradientColor=none;strokeColor=none;fillColor=none;" vertex="1" parent="1">
          <mxGeometry x="1027" y="263" width="55" height="53" as="geometry" />
        </mxCell>
        <mxCell id="Y5-xW1E8yCDe6cnVddpV-77" style="edgeStyle=orthogonalEdgeStyle;rounded=0;orthogonalLoop=1;jettySize=auto;html=1;exitX=1;exitY=0.75;exitDx=0;exitDy=0;entryX=0;entryY=0.5;entryDx=0;entryDy=0;" edge="1" parent="1" source="Y5-xW1E8yCDe6cnVddpV-78" target="Y5-xW1E8yCDe6cnVddpV-80">
          <mxGeometry relative="1" as="geometry" />
        </mxCell>
        <mxCell id="Y5-xW1E8yCDe6cnVddpV-87" style="edgeStyle=orthogonalEdgeStyle;rounded=0;orthogonalLoop=1;jettySize=auto;html=1;exitX=1;exitY=0.75;exitDx=0;exitDy=0;entryX=0;entryY=0.25;entryDx=0;entryDy=0;" edge="1" parent="1" source="Y5-xW1E8yCDe6cnVddpV-78" target="Y5-xW1E8yCDe6cnVddpV-85">
          <mxGeometry relative="1" as="geometry" />
        </mxCell>
        <mxCell id="Y5-xW1E8yCDe6cnVddpV-78" value="&lt;div align=&quot;left&quot;&gt;&lt;font face=&quot;Garamond&quot;&gt;&lt;b&gt;returncode,&lt;/b&gt;&lt;/font&gt;&lt;/div&gt;&lt;div align=&quot;left&quot;&gt;&lt;font face=&quot;Garamond&quot;&gt;&lt;b&gt;message,&lt;/b&gt;&lt;/font&gt;&lt;/div&gt;&lt;div align=&quot;left&quot;&gt;&lt;font face=&quot;Garamond&quot;&gt;&lt;b&gt;output&lt;br&gt;&lt;/b&gt;&lt;/font&gt;&lt;/div&gt;" style="text;html=1;align=left;verticalAlign=middle;whiteSpace=wrap;rounded=0;" vertex="1" parent="1">
          <mxGeometry x="1022" y="313.25" width="80" height="49.75" as="geometry" />
        </mxCell>
        <mxCell id="Y5-xW1E8yCDe6cnVddpV-79" value="" style="image;aspect=fixed;html=1;points=[];align=center;fontSize=12;image=img/lib/azure2/databases/Azure_Database_PostgreSQL_Server.svg;imageBorder=none;" vertex="1" parent="1">
          <mxGeometry x="1189" y="266" width="30" height="40" as="geometry" />
        </mxCell>
        <mxCell id="Y5-xW1E8yCDe6cnVddpV-80" value="&lt;font face=&quot;Garamond&quot;&gt;&lt;b&gt;Hotel_Subscription&lt;/b&gt;&lt;/font&gt;" style="text;html=1;align=left;verticalAlign=middle;whiteSpace=wrap;rounded=0;" vertex="1" parent="1">
          <mxGeometry x="1141.77" y="310" width="147" height="19.75" as="geometry" />
        </mxCell>
        <mxCell id="Y5-xW1E8yCDe6cnVddpV-81" value="" style="aspect=fixed;sketch=0;html=1;dashed=0;whitespace=wrap;verticalLabelPosition=bottom;verticalAlign=top;fillColor=#2875E2;strokeColor=#ffffff;points=[[0.005,0.63,0],[0.1,0.2,0],[0.9,0.2,0],[0.5,0,0],[0.995,0.63,0],[0.72,0.99,0],[0.5,1,0],[0.28,0.99,0]];shape=mxgraph.kubernetes.icon2;kubernetesLabel=1;prIcon=api" vertex="1" parent="1">
          <mxGeometry x="905" y="304" width="50" height="48" as="geometry" />
        </mxCell>
        <mxCell id="Y5-xW1E8yCDe6cnVddpV-85" value="&lt;font face=&quot;Garamond&quot;&gt;&lt;b&gt;Total Hotels &amp;amp; Subscribed&lt;br&gt;&lt;/b&gt;&lt;/font&gt;" style="text;html=1;align=left;verticalAlign=middle;whiteSpace=wrap;rounded=0;" vertex="1" parent="1">
          <mxGeometry x="1141.77" y="338" width="148.23" height="19.75" as="geometry" />
        </mxCell>
      </root>
    </mxGraphModel>
  </diagram>
</mxfile>
